<!-- <svg xmlns="http://www.w3.org/2000/svg" version="1.1" xmlns:xlink="http://www.w3.org/1999/xlink" width="512" height="512" x="0" y="0" viewBox="0 0 502 502" style="enable-background:new 0 0 512 512" xml:space="preserve" class="">
  <g>
    <linearGradient id="c" x1="251" x2="251" y1="126.476" y2="54.838" gradientUnits="userSpaceOnUse">
      <stop offset="0" stop-color="#b39bdb"></stop>
      <stop offset="1" stop-color="#d0c3e8"></stop>
    </linearGradient>
    <linearGradient id="a">
      <stop offset="0" stop-color="#4e5660"></stop>
      <stop offset="1" stop-color="#64768d"></stop>
    </linearGradient>
    <linearGradient xlink:href="#a" id="d" x1="251" x2="251" y1="513.551" y2="175.755" gradientUnits="userSpaceOnUse"></linearGradient>
    <linearGradient id="b">
      <stop offset="0" stop-color="#74d2e8"></stop>
      <stop offset="1" stop-color="#baeaf5"></stop>
    </linearGradient>
    <linearGradient xlink:href="#b" id="e" x1="131.217" x2="473.128" y1="287.993" y2="287.993" gradientUnits="userSpaceOnUse"></linearGradient>
    <linearGradient xlink:href="#a" id="f" x1="251" x2="251" y1="226.028" y2="410.602" gradientUnits="userSpaceOnUse"></linearGradient>
    <linearGradient xlink:href="#b" id="g" x1="121.794" x2="121.794" y1="127.503" y2="78.274" gradientUnits="userSpaceOnUse"></linearGradient>
    <linearGradient id="h" x1="413.421" x2="413.421" y1="219.663" y2="171.356" gradientUnits="userSpaceOnUse">
      <stop offset="0" stop-color="#f4c22c"></stop>
      <stop offset="1" stop-color="#f9e198"></stop>
    </linearGradient>
    <path fill="url(#a)" d="M297.125 51.311h-92.249c-15.53 0-29.049 10.614-32.735 25.7l-11.798 48.286h181.315L329.86 77.011c-3.686-15.086-17.205-25.7-32.735-25.7z" opacity="1" data-original="url(#a)" class=""></path>
    <path fill="url(#a)" d="M419.672 450.689H82.328C36.86 450.689 0 413.829 0 368.36V207.625c0-45.469 36.86-82.329 82.328-82.329h337.343c45.469 0 82.328 36.86 82.328 82.329V368.36c.001 45.469-36.859 82.329-82.327 82.329z" opacity="1" data-original="url(#a)" class=""></path>
    <circle cx="251" cy="287.993" r="120.104" fill="url(#e)" opacity="1" data-original="url(#e)"></circle>
    <circle cx="251" cy="287.993" r="75.901" fill="url(#f)" opacity="1" data-original="url(#f)"></circle>
    <circle cx="251" cy="287.993" r="21.1" fill="#424e5e" opacity="1" data-original="#424e5e"></circle>
    <path fill="url(#b)" d="M105.394 79.928h32.8c12.232 0 22.148 9.916 22.148 22.148v23.221H83.246v-23.221c0-12.232 9.916-22.148 22.148-22.148z" opacity="1" data-original="url(#b)" class=""></path>
    <circle cx="413.421" cy="192.583" r="24.543" fill="url(#h)" opacity="1" data-original="url(#h)"></circle>
    <path fill="#424e5e" d="M251 443.096a154.68 154.68 0 0 0 39.732-5.164c10.498-2.787 16.032-14.273 11.546-24.165-3.51-7.74-12.09-11.896-20.302-9.708a120.157 120.157 0 0 1-30.975 4.038c-46.955 0-87.617-26.946-107.366-66.218-4.196-8.344-14.269-11.842-22.777-7.989-9.071 4.108-12.871 14.95-8.379 23.837 25.573 50.596 78.061 85.369 138.521 85.369z" opacity="1" data-original="#424e5e"></path>
    <g fill="#8196ab">
      <path d="M303.846 299.493c-6.352 0-11.5-5.149-11.5-11.5 0-6.161-1.32-12.084-3.924-17.605-2.709-5.744-.248-12.597 5.496-15.307 5.743-2.71 12.597-.249 15.307 5.496 4.061 8.612 6.121 17.837 6.121 27.416 0 6.351-5.149 11.5-11.5 11.5zM265.989 248.808c-1.078 0-2.175-.153-3.262-.474a41.282 41.282 0 0 0-6.254-1.328c-6.297-.833-10.726-6.612-9.893-12.909s6.619-10.721 12.908-9.893a64.39 64.39 0 0 1 9.752 2.071c6.091 1.798 9.571 8.194 7.772 14.286-1.476 5.005-6.057 8.247-11.023 8.247z" fill="#8196ab" opacity="1" data-original="#8196ab"></path>
    </g>
  </g>
</svg> -->

<svg xmlns="http://www.w3.org/2000/svg" version="1.1" xmlns:xlink="http://www.w3.org/1999/xlink" width="512" height="512" x="0" y="0" viewBox="0 0 52 52" style="enable-background:new 0 0 512 512" xml:space="preserve" class="">
  <g>
    <linearGradient id="a">
      <stop offset="0" stop-color="#ffdd95"></stop>
      <stop offset="1" stop-color="#f9a83d"></stop>
    </linearGradient>
    <linearGradient xlink:href="#a" id="d" x1="15.173" x2="15.173" y1="4.963" y2="6.204" gradientUnits="userSpaceOnUse"></linearGradient>
    <radialGradient id="e" cx="26.376" cy="27.965" r="28.096" gradientUnits="userSpaceOnUse">
      <stop offset="0" stop-color="#4c5c75"></stop>
      <stop offset=".258" stop-color="#47566f"></stop>
      <stop offset=".594" stop-color="#384660"></stop>
      <stop offset=".97" stop-color="#1f2b45"></stop>
      <stop offset="1" stop-color="#1d2943"></stop>
    </radialGradient>
    <linearGradient id="f" x1="51.992" x2="21.513" y1="36.937" y2="31.073" gradientUnits="userSpaceOnUse">
      <stop offset="0" stop-color="#4c5c75" stop-opacity="0"></stop>
      <stop offset="1" stop-color="#1d2943"></stop>
    </linearGradient>
    <linearGradient id="b">
      <stop offset="0" stop-color="#e3e7f0"></stop>
      <stop offset="1" stop-color="#9ea9c9"></stop>
    </linearGradient>
    <linearGradient xlink:href="#b" id="g" x1="26" x2="26" y1="15.77" y2="41.911" gradientUnits="userSpaceOnUse"></linearGradient>
    <linearGradient xlink:href="#b" id="h" x1="127.034" x2="127.034" y1="56.454" y2="72.756" gradientTransform="rotate(45 110.176 -80.156)" gradientUnits="userSpaceOnUse"></linearGradient>
    <linearGradient id="c">
      <stop offset="0" stop-color="#4c5c75"></stop>
      <stop offset="1" stop-color="#1d2943"></stop>
    </linearGradient>
    <linearGradient xlink:href="#c" id="i" x1="-1242.746" x2="-1242.746" y1="-299.176" y2="-322.619" gradientTransform="rotate(180 -608.373 -138.51)" gradientUnits="userSpaceOnUse"></linearGradient>
    <linearGradient xlink:href="#c" id="j" x1="25.796" x2="26.201" y1="19.865" y2="35.796" gradientUnits="userSpaceOnUse"></linearGradient>
    <radialGradient id="k" cx="24.852" cy="25.964" r="6.468" gradientUnits="userSpaceOnUse">
      <stop offset="0" stop-color="#57b3fe"></stop>
      <stop offset="1" stop-color="#497bfe"></stop>
    </radialGradient>
    <linearGradient id="l" x1="52.502" x2="45.025" y1="24.91" y2="17.433" gradientUnits="userSpaceOnUse">
      <stop offset="0" stop-color="#4c5c75" stop-opacity="0"></stop>
      <stop offset="1" stop-color="#1d2943" stop-opacity=".7"></stop>
    </linearGradient>
    <radialGradient xlink:href="#a" id="m" cx="41.692" cy="14.241" r="1.895" gradientUnits="userSpaceOnUse"></radialGradient>
    <path fill="url(#d)" d="M19.2 8.1V5.6c0-1.3-1.1-2.4-2.4-2.4h-3.2c-1.3 0-2.4 1.1-2.4 2.4v2.5z" opacity="1" data-original="url(#d)"></path>
    <path fill="url(#e)" d="M37.8 6.9H14.2C7.5 6.9 2 12.4 2 19.2v17.4c0 6.7 5.5 12.2 12.2 12.2h23.6c6.7 0 12.2-5.5 12.2-12.2V19.2c0-6.8-5.5-12.3-12.2-12.3z" opacity="1" data-original="url(#e)"></path>
    <path fill="url(#f)" d="m15.1 38.8 10 10h12.7c6.7 0 12.2-5.5 12.2-12.2v-6.5L36.9 17z" opacity="1" data-original="url(#f)"></path>
    <circle cx="26" cy="27.9" r="15.4" fill="url(#g)" opacity="1" data-original="url(#g)"></circle>
    <circle cx="26" cy="27.9" r="14" fill="url(#h)" opacity="1" data-original="url(#h)"></circle>
    <circle cx="26" cy="27.9" r="11.1" fill="url(#i)" opacity="1" data-original="url(#i)"></circle>
    <circle cx="26" cy="27.9" r="9.3" fill="url(#j)" opacity="1" data-original="url(#j)"></circle>
    <circle cx="26" cy="27.9" r="6.2" fill="url(#k)" opacity="1" data-original="url(#k)"></circle>
    <path fill="url(#l)" d="m43.9 13.1-3.3 3.2 9.4 9.3v-6.4z" opacity="1" data-original="url(#l)"></path>
    <circle cx="42.3" cy="14.7" r="2.3" fill="url(#m)" opacity="1" data-original="url(#m)"></circle>
  </g>
</svg>