<svg xmlns="http://www.w3.org/2000/svg" version="1.1" xmlns:xlink="http://www.w3.org/1999/xlink" width="35" height="35" x="0" y="0" viewBox="0 0 512 512" style="enable-background:new 0 0 512 512" xml:space="preserve" class="">
  <g transform="matrix(1,0,0,1,8.526512829121202e-14,8.526512829121202e-14)">
    <linearGradient id="a" x1="255.999" x2="255.997" y1="64" y2="448" gradientUnits="userSpaceOnUse">
      <stop offset="0" stop-color="#fd6700"></stop>
      <stop offset="1" stop-color="#ffce00"></stop>
    </linearGradient>
    <path fill="url(#a)" d="M255.999 448a32 32 0 0 1-18-5.57c-78.59-53.35-112.62-89.93-131.39-112.8-40-48.75-59.15-98.8-58.61-153C48.63 114.52 98.46 64 159.08 64c44.08 0 74.61 24.83 92.39 45.51a6.016 6.016 0 0 0 4.53 2.066 6.01 6.01 0 0 0 4.53-2.066c17.78-20.7 48.31-45.51 92.39-45.51 60.62 0 110.45 50.52 111.08 112.64.54 54.21-18.63 104.26-58.61 153-18.77 22.87-52.8 59.45-131.39 112.8a31.995 31.995 0 0 1-18 5.56z" opacity="1" data-original="url(#a)" class=""></path>
  </g>
</svg>