<svg xmlns="http://www.w3.org/2000/svg" version="1.1" xmlns:xlink="http://www.w3.org/1999/xlink" width="512" height="512" x="0" y="0" viewBox="0 0 512 512" style="enable-background:new 0 0 512 512" xml:space="preserve" class="">
  <g>
    <linearGradient id="c" x1="74.981" x2="437.019" y1="437.019" y2="74.981" gradientUnits="userSpaceOnUse">
      <stop stop-opacity="1" stop-color="#6b23ea" offset="0"></stop>
      <stop stop-opacity="1" stop-color="#ff7b54" offset="1"></stop>
    </linearGradient>
    <radialGradient id="d" cx="253.972" cy="189.07" r="258.6" gradientUnits="userSpaceOnUse">
      <stop offset=".101" stop-color="#8d00db" stop-opacity=".66"></stop>
      <stop offset=".287" stop-color="#9f0de1" stop-opacity=".523"></stop>
      <stop offset=".656" stop-color="#cc30f0" stop-opacity=".252"></stop>
      <stop offset="1" stop-color="#fc54ff" stop-opacity="0"></stop>
    </radialGradient>
    <linearGradient id="a">
      <stop offset="0" stop-color="#b31de7"></stop>
      <stop offset="1" stop-color="#fda0ff"></stop>
    </linearGradient>
    <linearGradient xlink:href="#a" id="e" x1="21.067" x2="371.011" y1="606.819" y2="256.875" gradientUnits="userSpaceOnUse"></linearGradient>
    <linearGradient xlink:href="#a" id="f" x1="-57.482" x2="381.923" y1="689.193" y2="249.787" gradientUnits="userSpaceOnUse"></linearGradient>
    <linearGradient xlink:href="#a" id="g" x1="1.077" x2="357.695" y1="426.732" y2="70.114" gradientUnits="userSpaceOnUse"></linearGradient>
    <linearGradient xlink:href="#a" id="h" x1="69.012" x2="358.665" y1="360.518" y2="70.865" gradientUnits="userSpaceOnUse"></linearGradient>
    <radialGradient id="i" cx="256" cy="132.538" r="132.255" gradientUnits="userSpaceOnUse">
      <stop offset="0" stop-color="#fff"></stop>
      <stop offset="1" stop-color="#fda0ff" stop-opacity="0"></stop>
    </radialGradient>
    <linearGradient id="b">
      <stop offset="0" stop-color="#fda0ff"></stop>
      <stop offset="1" stop-color="#fff"></stop>
    </linearGradient>
    <linearGradient xlink:href="#b" id="j" x1="166.29" x2="321.183" y1="222.545" y2="67.653" gradientUnits="userSpaceOnUse"></linearGradient>
    <linearGradient xlink:href="#b" id="k" x1="225.109" x2="322.523" y1="163.503" y2="66.089" gradientUnits="userSpaceOnUse"></linearGradient>
    <circle cx="256" cy="256" r="256" fill="url(#c)" opacity="1" data-original="url(#c)"></circle>
    <circle cx="256" cy="256" r="256" fill="url(#d)" opacity="1" data-original="url(#d)"></circle>
    <path fill="url(#e)" d="M107.621 344.017c-12.641 6.13-23.93 14.332-33.346 24.134 39.5 60.68 106.654 104.74 181.725 104.687 65.754.062 125.211-33.697 165.689-82.744-104.054-11.41-208.845-27.922-314.068-46.077z" opacity="1" data-original="url(#e)"></path>
    <path fill="url(#f)" d="M348.886 331.787c-61.924.833-123.849.833-185.773 0-20.049-.27-38.932 4.2-55.493 12.23 39.594 57.987 105.107 98.709 178.56 97.927 50.876-.454 97.903-20.556 135.509-51.851a237.74 237.74 0 0 0 16.036-21.942c-21.75-22.623-53.485-36.825-88.839-36.364z" opacity="1" data-original="url(#f)"></path>
    <path fill="url(#g)" d="M386.47 171.751c.488 70.912-58.566 129.714-130.47 129.912-71.904-.198-130.958-59-130.47-129.912.705-70.885 59.758-131.292 130.47-131.463 70.712.17 129.765 60.576 130.47 131.463z" opacity="1" data-original="url(#g)"></path>
    <path fill="url(#h)" d="M271.366 270.906c-72.052-.106-130.942-58.623-130.251-129.78.136-14.736 2.785-28.942 7.498-42.253-14.32 21.033-22.895 46.077-23.082 72.877-.488 70.912 58.566 129.714 130.47 129.912 57.11-.032 106.015-37.391 123.591-87.958-23.447 34.158-63.25 57.164-108.226 57.202z" opacity="1" data-original="url(#h)"></path>
    <path fill="url(#i)" d="M387.962 133.883c.91 71.769-58.899 130.959-131.962 131.192-73.064-.234-132.873-59.425-131.962-131.192C125.195 62.162 185.004.187 256 0c70.996.188 130.805 62.161 131.962 133.883z" opacity="1" data-original="url(#i)"></path>
    <path fill="url(#j)" d="M317.233 132.815c.202 33.837-27.28 61.198-61.233 61.223-33.953-.025-61.435-27.385-61.233-61.223.225-33.826 27.706-61.764 61.233-61.777 33.527.013 61.009 27.949 61.233 61.777z" opacity="1" data-original="url(#j)"></path>
    <path fill="url(#k)" d="M286.617 132.607c.052 16.968-13.664 30.676-30.617 30.681-16.953-.006-30.668-13.712-30.617-30.681.055-16.964 13.771-30.817 30.617-30.819 16.846 0 30.562 13.853 30.617 30.819z" opacity="1" data-original="url(#k)"></path>
  </g>
</svg>