<svg xmlns="http://www.w3.org/2000/svg" version="1.1" xmlns:xlink="http://www.w3.org/1999/xlink" width="512" height="512" x="0" y="0" viewBox="0 0 512 512" style="enable-background:new 0 0 512 512" xml:space="preserve" class="">
  <g>
    <linearGradient id="a" x1="50.354" x2="349.386" y1="358.102" y2="59.071" gradientTransform="matrix(1 0 0 -1 0 513.64)" gradientUnits="userSpaceOnUse">
      <stop stop-opacity="1" stop-color="#648cf6" offset="0"></stop>
      <stop stop-opacity="1" stop-color="#9619d2" offset="1"></stop>
    </linearGradient>
    <path fill="url(#a)" d="M358.9 298.4 273.3 384c-4.6 4.6-7.7 10.8-8.5 17.3l-6.9 52c-.6 4.8-.1 9.5 1.5 14h-212c-27.1 0-46.4-26.4-38.1-52.2l32.9-102.8c10.6-33 46.7-50.1 78.9-37.6 21.4 8.3 48.9 14.8 82.6 14.8s61.2-6.5 82.6-14.8c27.4-10.7 57.6 0 72.6 23.7zM203.8 44.8c-56.9 0-103.1 46.2-103.1 103.1S146.9 251 203.8 251s103.1-46.2 103.1-103.1S260.7 44.8 203.8 44.8zm199 238L287.4 398.1c-1.6 1.5-2.5 3.6-2.8 5.8l-6.9 52c-.9 6.5 4.7 12.1 11.2 11.2l52-6.9c2.2-.3 4.2-1.3 5.8-2.8L462 342zm94.5-11.5-23.9-23.9c-9.8-9.8-25.6-9.8-35.3 0l-14.7 14.7 59.2 59.2 14.7-14.7c9.7-9.7 9.7-25.5 0-35.3z" opacity="1" data-original="url(#a)" class=""></path>
  </g>
</svg>