<svg xmlns="http://www.w3.org/2000/svg" version="1.1" xmlns:xlink="http://www.w3.org/1999/xlink" width="512" height="512" x="0" y="0" viewBox="0 0 512 512" style="enable-background:new 0 0 512 512" xml:space="preserve">
  <g>
    <linearGradient id="a">
      <stop offset="0" stop-color="#8385ab"></stop>
      <stop offset="1" stop-color="#424566"></stop>
    </linearGradient>
    <linearGradient xlink:href="#a" id="c" x1="61.162" x2="460.761" y1="61.162" y2="460.761" gradientUnits="userSpaceOnUse"></linearGradient>
    <linearGradient id="b">
      <stop offset="0" stop-color="#fafbff"></stop>
      <stop offset="1" stop-color="#c4cbff"></stop>
    </linearGradient>
    <linearGradient xlink:href="#b" id="d" x1="224.73" x2="283.972" y1="104.397" y2="163.64" gradientUnits="userSpaceOnUse"></linearGradient>
    <linearGradient xlink:href="#b" id="e" x1="142.833" x2="370.675" y1="157.358" y2="385.199" gradientUnits="userSpaceOnUse"></linearGradient>
    <linearGradient xlink:href="#a" id="f" x1="179.187" x2="330.111" y1="199.665" y2="350.59" gradientUnits="userSpaceOnUse"></linearGradient>
    <linearGradient xlink:href="#b" id="g" x1="256" x2="256" y1="134.67" y2="172.482" gradientUnits="userSpaceOnUse"></linearGradient>
    <path fill="url(#c)" d="M512 256c-1.5 85.6-16.6 154.5-59.7 196.3-41.8 43.1-110.7 58.2-196.3 59.7-85.6-1.5-154.5-16.6-196.3-59.7C16.6 410.5 1.5 341.6 0 256c1.5-85.6 16.6-154.5 59.7-196.3C101.5 16.6 170.4 1.5 256 0c85.6 1.5 154.5 16.6 196.3 59.7 43.1 41.8 58.2 110.7 59.7 196.3z" opacity="1" data-original="url(#c)"></path>
    <circle cx="256" cy="135.7" r="44.6" fill="url(#d)" opacity="1" data-original="url(#d)"></circle>
    <path fill="url(#e)" d="m389.3 175.4-37.4 219.5C349.3 410 336.3 421 321 421H191.1c-15.3 0-28.4-11-30.9-26.1l-37.4-219.5z" opacity="1" data-original="url(#e)"></path>
    <path fill="url(#f)" d="M208.6 362c-3.6 0-6.8-2.6-7.4-6.3l-22.5-133.5c-.7-4.1 2.1-8 6.2-8.6 4.1-.7 8 2.1 8.6 6.2L216 353.2c.7 4.1-2.1 8-6.2 8.6-.4.1-.8.2-1.2.2zm54.9-6.6V220c0-4.1-3.4-7.5-7.5-7.5s-7.5 3.4-7.5 7.5v135.4c0 4.1 3.4 7.5 7.5 7.5s7.5-3.4 7.5-7.5zm47.3.3 22.5-133.5c.7-4.1-2.1-8-6.2-8.6-4.1-.7-8 2.1-8.6 6.2L296 353.2c-.7 4.1 2.1 8 6.2 8.6.4.1.8.1 1.3.1 3.5.1 6.7-2.5 7.3-6.2z" opacity="1" data-original="url(#f)"></path>
    <path fill="url(#g)" d="M417.2 154.5c0 11.6-9.4 20.9-20.9 20.9H115.7c-11.6 0-20.9-9.4-20.9-20.9 0-11.6 9.4-20.9 20.9-20.9h280.5c11.6-.1 21 9.3 21 20.9z" opacity="1" data-original="url(#g)"></path>
  </g>
</svg>