<svg xmlns="http://www.w3.org/2000/svg" version="1.1" xmlns:xlink="http://www.w3.org/1999/xlink" width="512" height="512" x="0" y="0" viewBox="0 0 24 24" style="enable-background:new 0 0 512 512" xml:space="preserve" class="">
  <g>
    <path d="m14.59 5.32-9.4 13.43H4a2.324 2.324 0 0 1-.59-.07 2.794 2.794 0 0 1-.94-.39A2.757 2.757 0 0 1 1.25 16V8A2.748 2.748 0 0 1 4 5.25h10a2.324 2.324 0 0 1 .59.07zM16.75 8v8A2.748 2.748 0 0 1 14 18.75H6.41l9.12-13.04A2.757 2.757 0 0 1 16.75 8z" fill="#fc0005" opacity="1" data-original="#000000" class=""></path>
    <path d="M22.46 7.408a.749.749 0 0 0-.646-.135l-6 1.53a.75.75 0 0 0-.564.727v4.94a.75.75 0 0 0 .564.727l6 1.53a.789.789 0 0 0 .186.023.751.751 0 0 0 .75-.75V8a.75.75 0 0 0-.29-.592zM16.61 2.43l-2.02 2.89-9.4 13.43-2.58 3.68a.724.724 0 0 1-.61.32.692.692 0 0 1-.43-.14.74.74 0 0 1-.18-1.04l2.02-2.89 9.4-13.43 2.58-3.68a.746.746 0 0 1 1.22.86z" fill="#d80000" opacity="1" data-original="#000000" class=""></path>
  </g>
</svg>