<svg xmlns="http://www.w3.org/2000/svg" version="1.1" xmlns:xlink="http://www.w3.org/1999/xlink" width="512" height="512" x="0" y="0" viewBox="0 0 173.397 173.397" style="enable-background:new 0 0 512 512" xml:space="preserve" fill-rule="evenodd" class="">
  <g>
    <linearGradient id="a" x1="25.739" x2="147.659" y1="147.659" y2="25.739" gradientUnits="userSpaceOnUse">
      <stop offset="0" stop-color="#8a2387"></stop>
      <stop offset=".471" stop-color="#e94057"></stop>
      <stop offset="1" stop-color="#f27121"></stop>
    </linearGradient>
    <circle cx="86.699" cy="86.699" r="84.667" fill="url(#a)" opacity="1" data-original="url(#a)" class=""></circle>
    <g fill="#fff">
      <path d="M86.699 111.801c-15.06.113-32.407-6.098-50.51-25.102C54.292 67.695 71.64 61.483 86.7 61.596c15.059-.113 32.407 6.099 50.508 25.103-18.101 19.004-35.45 25.215-50.508 25.102zm0-45.632c-11.403 0-20.646 9.191-20.646 20.53s9.243 20.53 20.646 20.53 20.645-9.192 20.645-20.53-9.243-20.53-20.645-20.53z" fill="#ffffff" opacity="1" data-original="#ffffff" class=""></path>
      <g fill-rule="nonzero">
        <path d="M86.699 94.495c-4.31 0-7.84-3.475-7.84-7.797 0-4.32 3.53-7.796 7.84-7.796 4.31 0 7.839 3.475 7.839 7.797 0 4.32-3.53 7.796-7.84 7.796zM83.675 47.846a3.024 3.024 0 1 0 6.048 0V35.294a3.024 3.024 0 0 0-6.048 0zM108.125 51.447a3.021 3.021 0 1 0 4.961 3.45l7.548-10.87a3.021 3.021 0 0 0-4.96-3.45zM60.311 54.897a3.021 3.021 0 1 0 4.961-3.45l-7.548-10.87a3.021 3.021 0 0 0-4.961 3.45zM89.723 125.551a3.024 3.024 0 0 0-6.048 0v12.552a3.024 3.024 0 1 0 6.048 0zM113.086 118.501a3.021 3.021 0 0 0-4.961 3.449l7.548 10.87a3.021 3.021 0 1 0 4.961-3.449zM65.272 121.95a3.021 3.021 0 1 0-4.961-3.449l-7.548 10.87a3.021 3.021 0 0 0 4.96 3.45z" fill="#ffffff" opacity="1" data-original="#ffffff" class=""></path>
      </g>
    </g>
  </g>
</svg>