<svg xmlns="http://www.w3.org/2000/svg" version="1.1" xmlns:xlink="http://www.w3.org/1999/xlink" width="512" height="512" x="0" y="0" viewBox="0 0 48 48" style="enable-background:new 0 0 512 512" xml:space="preserve" class="">
  <g>
    <linearGradient id="b" x1="24" x2="24" y1="1.51" y2="47.902" gradientUnits="userSpaceOnUse">
      <stop offset="0" stop-color="#ffeef1"></stop>
      <stop offset="1" stop-color="#ffc6cf"></stop>
    </linearGradient>
    <linearGradient id="a" x1="33" x2="33" y1="11.043" y2="36.754" gradientUnits="userSpaceOnUse">
      <stop offset="0" stop-color="#fd4685"></stop>
      <stop offset="1" stop-color="#ff9d8c"></stop>
    </linearGradient>
    <linearGradient xlink:href="#a" id="c" x1="25" x2="25" y1="11.043" y2="36.754"></linearGradient>
    <linearGradient xlink:href="#a" id="d" x1="15" x2="15" y1="11.043" y2="36.754"></linearGradient>
    <linearGradient xlink:href="#a" id="e" x1="23.085" x2="23.085" y1="11.043" y2="36.754"></linearGradient>
    <linearGradient xlink:href="#a" id="f" x1="13.765" x2="13.765" y1="11.043" y2="36.754"></linearGradient>
    <path fill="url(#b)" d="M46.406 10.717a9.683 9.683 0 0 0-9.124-9.124 235.401 235.401 0 0 0-26.564 0 9.684 9.684 0 0 0-9.124 9.124 235.412 235.412 0 0 0 0 26.565 9.684 9.684 0 0 0 9.124 9.124 234.815 234.815 0 0 0 26.564 0 9.683 9.683 0 0 0 9.124-9.124 235.412 235.412 0 0 0 0-26.565z" data-name="Layer 2" opacity="1" data-original="url(#b)"></path>
    <g data-name="Layer 3">
      <path fill="url(#a)" d="M33 27.25A4.75 4.75 0 1 0 37.75 32 4.755 4.755 0 0 0 33 27.25zm0 1.5a3.219 3.219 0 0 1 1.698.492l-4.456 4.456A3.219 3.219 0 0 1 29.75 32 3.254 3.254 0 0 1 33 28.75zm0 6.5a3.219 3.219 0 0 1-1.698-.492l4.456-4.456A3.219 3.219 0 0 1 36.25 32 3.254 3.254 0 0 1 33 35.25z" opacity="1" data-original="url(#a)"></path>
      <circle cx="25" cy="17" r="5.75" fill="url(#c)" opacity="1" data-original="url(#c)"></circle>
      <circle cx="15" cy="20" r="3.75" fill="url(#d)" opacity="1" data-original="url(#d)"></circle>
      <path fill="url(#e)" d="M26.75 32a6.18 6.18 0 0 0 .64 2.75h-9.73a2.297 2.297 0 0 1-2.22-2.7 9.799 9.799 0 0 1 9.56-7.8 9.616 9.616 0 0 1 5.77 1.92A6.237 6.237 0 0 0 26.75 32z" opacity="1" data-original="url(#e)"></path>
      <path fill="url(#f)" d="M17.28 25.83a11.256 11.256 0 0 0-3.06 4.92H11a.755.755 0 0 1-.75-.75 4.754 4.754 0 0 1 7.03-4.17z" opacity="1" data-original="url(#f)"></path>
    </g>
  </g>
</svg>