<svg xmlns="http://www.w3.org/2000/svg" version="1.1" xmlns:xlink="http://www.w3.org/1999/xlink" width="512" height="512" x="0" y="0" viewBox="0 0 512 512" style="enable-background:new 0 0 512 512" xml:space="preserve" class="">
  <g>
    <linearGradient id="a" x1="256" x2="256" y1="512.7" y2="5.76" gradientTransform="matrix(1 0 0 -1 0 512)" gradientUnits="userSpaceOnUse">
      <stop offset="0" stop-color="#fdae3e"></stop>
      <stop offset="1" stop-color="#ff0749"></stop>
    </linearGradient>
    <path fill="url(#a)" d="M255.9 512C114.9 512-.5 396.2 0 255.2.5 114.6 115.4.1 256.1 0S512.4 115.6 512 256.7C511.6 397.2 396.4 512 255.9 512zm-96.5-104.7c63.8 44.5 166.5 41 231.3-31.2 62-69.1 54.6-166.9 16.1-216.1-82.3 82.2-164.7 164.6-247.4 247.3zm192.7-302.7c-57.9-41.9-157-42.2-223.2 23.4-66.6 66.1-66.4 166-24.4 224.2z" opacity="1" data-original="url(#a)"></path>
  </g>
</svg>