<svg xmlns="http://www.w3.org/2000/svg" version="1.1" xmlns:xlink="http://www.w3.org/1999/xlink" width="512" height="512" x="0" y="0" viewBox="0 0 512 512" style="enable-background:new 0 0 512 512" xml:space="preserve" class="">
  <g>
    <linearGradient id="a" x1="256" x2="256" y1="512" y2="30" gradientUnits="userSpaceOnUse">
      <stop stop-opacity="1" stop-color="#5558ff" offset="0"></stop>
      <stop stop-opacity="1" stop-color="#e400ff" offset="1"></stop>
    </linearGradient>
    <linearGradient id="b" x1="256" x2="256" y1="452.875" y2="0" gradientUnits="userSpaceOnUse">
      <stop stop-opacity="1" stop-color="#addcff" offset="0"></stop>
      <stop stop-opacity="1" stop-color="#eaf6ff" offset="0.503"></stop>
      <stop stop-opacity="1" stop-color="#feeaff" offset="1"></stop>
    </linearGradient>
    <path fill="url(#a)" d="M448 271h19V30H45v241h19L0 286v181c0 24.898 20.1 45 45 45h422c24.9 0 45-20.102 45-45V286z" opacity="1" data-original="url(#a)" class=""></path>
    <path fill="url(#b)" d="M467 0H45C20.1 0 0 20.1 0 45v241h512V45c0-24.9-20.1-45-45-45zm-31 241H76c-8.401 0-15-6.601-15-15 0-8.401 6.599-15 15-15h22.2L198.701 67.299A15.81 15.81 0 0 1 210.4 61c5.4-.3 9.3 1.8 12.001 5.4L292.9 151H346c3.9 0 7.8 1.5 10.499 4.499L412.301 211H436c8.401 0 15 6.599 15 15 0 8.399-6.599 15-15 15zm-30-90c-24.9 0-45-20.102-45-45 0-24.9 20.1-45 45-45s45 20.1 45 45c0 24.898-20.1 45-45 45zM174.789 329.77c-9.551 0-17.52 3.311-23.701 7.632-6.182-4.321-14.15-7.632-23.701-7.632-21.68 0-38.672 20.215-38.672 46.025 0 16.128 7.119 47.329 54.844 75.044 2.314 1.362 4.922 2.036 7.529 2.036s5.215-.674 7.529-2.036c47.725-27.715 54.844-58.916 54.844-75.044 0-25.811-16.992-46.025-38.672-46.025zM406 421H256c-8.291 0-15 6.709-15 15s6.709 15 15 15h150c8.291 0 15-6.709 15-15s-6.709-15-15-15zm0-60H256c-8.291 0-15 6.709-15 15s6.709 15 15 15h150c8.291 0 15-6.709 15-15s-6.709-15-15-15z" opacity="1" data-original="url(#b)" class=""></path>
  </g>
</svg>