<svg xmlns="http://www.w3.org/2000/svg" version="1.1" xmlns:xlink="http://www.w3.org/1999/xlink" width="512" height="512" x="0" y="0" viewBox="0 0 512 512" style="enable-background:new 0 0 512 512" xml:space="preserve" class="">
  <g>
    <linearGradient id="a" x1="74.98" x2="437.02" y1="74.98" y2="437.02" gradientUnits="userSpaceOnUse">
      <stop offset="0" stop-color="#ff6432"></stop>
      <stop offset="1" stop-color="#f44336"></stop>
    </linearGradient>
    <linearGradient id="b" x1="256.01" x2="437.02" y1="256" y2="437.01" gradientUnits="userSpaceOnUse">
      <stop offset="0" stop-color="#b33128"></stop>
      <stop offset=".93" stop-color="#b33128" stop-opacity="0"></stop>
    </linearGradient>
    <g data-name="Layer 2">
      <circle cx="256" cy="256" r="256" fill="url(#a)" opacity="1" data-original="url(#a)"></circle>
      <path fill="url(#b)" d="M511.78 266.61c-5.41 132.93-112.22 239.74-245.15 245.17l-133.2-133.2 245.16-245.16z" opacity="1" data-original="url(#b)"></path>
      <path fill="#ffffff" d="M348.6 391a42.13 42.13 0 0 1-30-12.42L256 316l-62.6 62.61a42.41 42.41 0 1 1-60-60L196 256l-62.61-62.6a42.41 42.41 0 0 1 60-60L256 196l62.6-62.61a42.41 42.41 0 1 1 60 60L316 256l62.61 62.6a42.41 42.41 0 0 1-30 72.4z" opacity="1" data-original="#ffffff"></path>
    </g>
  </g>
</svg>