<svg xmlns="http://www.w3.org/2000/svg" version="1.1" xmlns:xlink="http://www.w3.org/1999/xlink" width="512" height="512" x="0" y="0" viewBox="0 0 512 512" style="enable-background:new 0 0 512 512" xml:space="preserve" class="">
  <g>
    <linearGradient id="a" x1="74.98" x2="437.02" y1="74.98" y2="437.02" gradientUnits="userSpaceOnUse">
      <stop offset="0" stop-color="#ff6432"></stop>
      <stop offset="1" stop-color="#f44336"></stop>
    </linearGradient>
    <linearGradient id="b" x1="179.59" x2="422.02" y1="209.59" y2="452.02" gradientUnits="userSpaceOnUse">
      <stop offset="0" stop-color="#b33128"></stop>
      <stop offset=".93" stop-color="#b33128" stop-opacity="0"></stop>
    </linearGradient>
    <g data-name="Layer 2">
      <circle cx="256" cy="256" r="256" fill="url(#a)" opacity="1" data-original="url(#a)" class=""></circle>
      <path fill="url(#b)" d="M493.46 351.83A256.44 256.44 0 0 1 305.57 507.2L150.29 351.92C190 303.69 265.41 123.78 265.41 123.78z" opacity="1" data-original="url(#b)"></path>
      <path fill="#ffffff" d="m364 329.65-36.4-44.35v-58.4a71.62 71.62 0 0 0-54.24-69.48v-19.06A17.36 17.36 0 0 0 256 121a17.36 17.36 0 0 0-17.36 17.36v19.06a71.62 71.62 0 0 0-54.24 69.48v58.4L148 329.65a15.78 15.78 0 0 0 12.2 25.78h55.9A40.13 40.13 0 0 0 256 391a40.13 40.13 0 0 0 39.86-35.57h55.9A15.78 15.78 0 0 0 364 329.65z" opacity="1" data-original="#ffffff"></path>
    </g>
  </g>
</svg>