<svg xmlns="http://www.w3.org/2000/svg" version="1.1" xmlns:xlink="http://www.w3.org/1999/xlink" width="512" height="512" x="0" y="0" viewBox="0 0 512 512" style="enable-background:new 0 0 512 512" xml:space="preserve" class="">
  <g>
    <path fill="#fc0005" fill-rule="evenodd" d="M270.386 386.668a130.3 130.3 0 0 1-88.2-34.436L150.5 383.915a175.287 175.287 0 0 0 97.49 46.1V512h44.783v-81.98c86.157-11.074 153.238-85.141 153.238-174.2v-22.39h-44.778v22.391c0 71.922-58.926 130.847-130.847 130.847zm87.353-209.988v77.45a87.239 87.239 0 0 1-143.9 66.449l143.9-143.9zM108.482 323.736a174.151 174.151 0 0 1-13.726-67.915V233.43h44.783v22.391a129.788 129.788 0 0 0 4.167 32.691l39.326-39.326V100.151A87.61 87.61 0 0 1 270.386 12.8c40.211 0 74.3 27.536 84.351 64.683L432.218 0l31.666 31.666-39.692 39.692-66.453 66.453L195.91 299.64l-31.986 31.986-31.983 31.983-26.11 26.11-26.049 26.049L48.116 384.1z" opacity="1" data-original="#fc0005" class=""></path>
  </g>
</svg>