<svg xmlns="http://www.w3.org/2000/svg" version="1.1" xmlns:xlink="http://www.w3.org/1999/xlink" width="512" height="512" x="0" y="0" viewBox="0 0 513 513" style="enable-background:new 0 0 512 512" xml:space="preserve" class="">
  <g>
    <linearGradient id="a">
      <stop stop-opacity="1" stop-color="#081213" offset="0"></stop>
      <stop stop-opacity="1" stop-color="#b600ff" offset="1"></stop>
    </linearGradient>
    <linearGradient xlink:href="#a" id="b" x1="359.327" x2="359.327" y1="99.896" y2="480.628" gradientUnits="userSpaceOnUse"></linearGradient>
    <linearGradient xlink:href="#a" id="c" x1="384.904" x2="384.904" y1="32.835" y2="272.728" gradientUnits="userSpaceOnUse"></linearGradient>
    <path fill="url(#b)" d="M262.473 102.115a8.002 8.002 0 0 0-11.06 0l-184.1 175.87a7.992 7.992 0 0 0-2.47 5.79l-.03 165.06a31.998 31.998 0 0 0 32 32h96.1c4.243 0 8.313-1.686 11.313-4.687 3.001-3 4.687-7.07 4.687-11.313v-136a7.996 7.996 0 0 1 8-8h80a8 8 0 0 1 8 8v136a15.998 15.998 0 0 0 16 16h96.06a32.001 32.001 0 0 0 32-32v-165.06a8.013 8.013 0 0 0-2.47-5.79z" opacity="1" data-original="url(#b)" class=""></path>
    <path fill="url(#c)" d="m491.824 244.985-74.8-71.56V64.835a15.998 15.998 0 0 0-16-16h-48a15.998 15.998 0 0 0-16 16v32l-57.92-55.38c-5.42-5.48-13.48-8.62-22.19-8.62-8.68 0-16.72 3.14-22.14 8.63l-212.7 203.5c-6.22 6-7 15.87-1.34 22.37a15.999 15.999 0 0 0 17.729 4.498 15.992 15.992 0 0 0 5.451-3.438l207.5-198.28a8 8 0 0 1 11.06 0l207.52 198.28a16.002 16.002 0 0 0 22.59-.44c6.14-6.36 5.63-16.86-.76-22.97z" opacity="1" data-original="url(#c)" class=""></path>
  </g>
</svg>