<svg xmlns="http://www.w3.org/2000/svg" version="1.1" xmlns:xlink="http://www.w3.org/1999/xlink" width="512" height="512" x="0" y="0" viewBox="0 0 510 510" style="enable-background:new 0 0 512 512" xml:space="preserve" class="">
  <g>
    <linearGradient id="c" x1="0" x2="510" y1="255" y2="255" gradientUnits="userSpaceOnUse">
      <stop offset="0" stop-color="#fe99a0"></stop>
      <stop offset=".593" stop-color="#fe646f"></stop>
      <stop offset="1" stop-color="#e41f2d"></stop>
    </linearGradient>
    <linearGradient id="a">
      <stop offset="0" stop-color="#fe646f"></stop>
      <stop offset=".704" stop-color="#e41f2d"></stop>
      <stop offset="1" stop-color="#c41926"></stop>
    </linearGradient>
    <linearGradient xlink:href="#a" id="d" x1="196.766" x2="491.657" y1="29.335" y2="29.335" gradientUnits="userSpaceOnUse"></linearGradient>
    <linearGradient xlink:href="#a" id="e" x1="196.77" x2="491.626" y1="480.665" y2="480.665" gradientUnits="userSpaceOnUse"></linearGradient>
    <linearGradient xlink:href="#a" id="f" x1="194" x2="510.228" y1="255" y2="255" gradientUnits="userSpaceOnUse"></linearGradient>
    <linearGradient xlink:href="#a" id="g" x1="-217.77" x2="104.493" y1="-497.362" y2="-497.362" gradientTransform="rotate(45 -809.014 255.167)" gradientUnits="userSpaceOnUse"></linearGradient>
    <linearGradient id="h" x1="-2.016" x2="110.13" y1="-497.42" y2="-497.42" gradientTransform="rotate(45 -809.014 255.167)" gradientUnits="userSpaceOnUse">
      <stop offset="0" stop-color="#c41926"></stop>
      <stop offset="1" stop-color="#c41926"></stop>
    </linearGradient>
    <linearGradient id="b">
      <stop offset="0" stop-color="#fff9df"></stop>
      <stop offset=".593" stop-color="#ffe177"></stop>
      <stop offset="1" stop-color="#feb137"></stop>
    </linearGradient>
    <linearGradient xlink:href="#b" id="i" x1="175.554" x2="334.446" y1="201.472" y2="201.472" gradientUnits="userSpaceOnUse"></linearGradient>
    <linearGradient xlink:href="#b" id="j" x1="136.704" x2="373.296" y1="353.566" y2="353.566" gradientUnits="userSpaceOnUse"></linearGradient>
    <linearGradient id="k" x1="179" x2="385.039" y1="374.127" y2="374.127" gradientUnits="userSpaceOnUse">
      <stop offset="0" stop-color="#ffe177"></stop>
      <stop offset="1" stop-color="#feb137"></stop>
    </linearGradient>
    <path fill="url(#c)" d="M492.295 314.117c6.396 0 11.916-4.527 13.122-10.808C508.42 287.667 510 271.518 510 255s-1.58-32.667-4.583-48.309c-1.206-6.281-6.726-10.808-13.122-10.808H461.02c-5.689 0-10.727-3.612-12.615-8.978a203.844 203.844 0 0 0-8.494-20.499c-2.463-5.133-1.459-11.254 2.567-15.279l22.101-22.101c4.525-4.525 5.221-11.632 1.631-16.93a255.965 255.965 0 0 0-30.894-37.404l-.008-.008a255.965 255.965 0 0 0-37.404-30.894c-5.297-3.589-12.405-2.893-16.93 1.631l-22.101 22.101c-4.026 4.026-10.146 5.03-15.279 2.567a203.651 203.651 0 0 0-20.499-8.494c-5.366-1.888-8.978-6.926-8.978-12.615V17.705c0-6.396-4.527-11.916-10.808-13.122C287.667 1.58 271.518 0 255 0s-32.667 1.58-48.309 4.583c-6.281 1.206-10.808 6.726-10.808 13.122V48.98c0 5.689-3.612 10.727-8.978 12.615a203.844 203.844 0 0 0-20.499 8.494c-5.133 2.463-11.254 1.459-15.279-2.567l-22.101-22.101c-4.525-4.525-11.632-5.221-16.93-1.631a255.94 255.94 0 0 0-37.407 30.896l-.003.002a255.94 255.94 0 0 0-30.896 37.407c-3.589 5.297-2.893 12.405 1.631 16.93l22.101 22.101c4.026 4.026 5.03 10.146 2.567 15.279a203.651 203.651 0 0 0-8.494 20.499c-1.888 5.366-6.926 8.978-12.615 8.978H17.705c-6.396 0-11.916 4.527-13.122 10.808C1.58 222.333 0 238.482 0 255s1.58 32.667 4.583 48.309c1.206 6.281 6.726 10.808 13.122 10.808H48.98c5.689 0 10.727 3.612 12.615 8.978a203.844 203.844 0 0 0 8.494 20.499c2.463 5.133 1.459 11.254-2.567 15.279l-22.101 22.101c-4.525 4.525-5.221 11.632-1.631 16.93a255.94 255.94 0 0 0 30.896 37.407l.003.002a255.886 255.886 0 0 0 37.407 30.896c5.297 3.589 12.405 2.893 16.93-1.631l22.101-22.101c4.026-4.026 10.146-5.03 15.279-2.567a203.651 203.651 0 0 0 20.499 8.494c5.366 1.888 8.978 6.926 8.978 12.615v31.275c0 6.396 4.527 11.916 10.808 13.122C222.333 508.42 238.482 510 255 510s32.667-1.58 48.309-4.583c6.281-1.206 10.808-6.726 10.808-13.122V461.02c0-5.689 3.612-10.727 8.978-12.615a203.844 203.844 0 0 0 20.499-8.494c5.133-2.463 11.254-1.459 15.279 2.567l22.101 22.101c4.525 4.525 11.632 5.221 16.93 1.631a255.965 255.965 0 0 0 37.404-30.894l.008-.008a255.965 255.965 0 0 0 30.894-37.404c3.589-5.297 2.893-12.405-1.631-16.93l-22.101-22.101c-4.026-4.026-5.03-10.146-2.567-15.279a203.651 203.651 0 0 0 8.494-20.499c1.888-5.366 6.926-8.978 12.615-8.978z" opacity="1" data-original="url(#c)" class=""></path>
    <path fill="url(#d)" d="M274.1 46.76V17.71c0-6.384-4.506-11.913-10.775-13.119A255.408 255.408 0 0 0 234.99.79C241.59.28 248.26 0 255 0c16.52 0 32.67 1.58 48.31 4.58 6.28 1.21 10.81 6.73 10.81 13.13v31.27c0 3.76 1.57 7.22 4.18 9.69h-32.29c-6.578 0-11.91-5.332-11.91-11.91z" opacity="1" data-original="url(#d)"></path>
    <path fill="url(#e)" d="M318.29 451.33a13.286 13.286 0 0 0-4.17 9.69v31.27c0 6.4-4.53 11.92-10.81 13.13-15.64 3-31.79 4.58-48.31 4.58-6.74 0-13.41-.28-20.01-.79a255.171 255.171 0 0 0 28.335-3.801c6.269-1.207 10.775-6.735 10.775-13.119v-29.05c0-6.578 5.332-11.91 11.91-11.91z" opacity="1" data-original="url(#e)"></path>
    <path fill="url(#f)" d="M505.417 206.691c-1.206-6.281-6.726-10.808-13.122-10.808H461.02c-5.689 0-10.727-3.612-12.615-8.978a203.844 203.844 0 0 0-8.494-20.499c-2.463-5.133-1.459-11.254 2.567-15.28l22.101-22.101c4.525-4.525 5.221-11.632 1.631-16.93a255.965 255.965 0 0 0-30.894-37.404l-.008-.008a255.965 255.965 0 0 0-37.404-30.894c-5.297-3.589-12.405-2.893-16.93 1.631l-8.798 8.798a255.622 255.622 0 0 1 23.112 20.465l.008.008a255.965 255.965 0 0 1 30.894 37.404c3.589 5.297 2.893 12.405-1.631 16.93l-22.101 22.101c-4.026 4.026-5.03 10.146-2.567 15.28a203.651 203.651 0 0 1 8.494 20.499c1.888 5.366 6.926 8.978 12.615 8.978h31.275c6.396 0 11.916 4.527 13.122 10.808 3.003 15.642 4.583 31.79 4.583 48.309s-1.58 32.667-4.583 48.309c-1.206 6.281-6.726 10.808-13.122 10.808H421c-5.689 0-10.727 3.612-12.615 8.978a203.844 203.844 0 0 1-8.494 20.499c-2.463 5.133-1.459 11.254 2.567 15.28l22.101 22.101c4.525 4.525 5.221 11.632 1.631 16.93a255.965 255.965 0 0 1-30.894 37.404l-.008.008a255.775 255.775 0 0 1-23.112 20.465l8.798 8.798c4.525 4.525 11.632 5.221 16.93 1.631a255.965 255.965 0 0 0 37.404-30.894l.008-.008a255.965 255.965 0 0 0 30.894-37.404c3.589-5.297 2.893-12.405-1.631-16.93l-22.101-22.101c-4.026-4.026-5.03-10.146-2.567-15.28a203.651 203.651 0 0 0 8.494-20.499c1.888-5.366 6.926-8.978 12.615-8.978h31.275c6.396 0 11.916-4.527 13.122-10.808C508.42 287.667 510 271.519 510 255s-1.58-32.667-4.583-48.309z" opacity="1" data-original="url(#f)"></path>
    <circle cx="255" cy="255" r="161.131" fill="url(#g)" opacity="1" data-original="url(#g)"></circle>
    <path fill="url(#h)" d="M368.937 141.063a162.694 162.694 0 0 0-14.379-12.763c49.817 63.237 45.57 155.163-12.763 213.495s-150.258 62.58-213.495 12.763a164.043 164.043 0 0 0 8.397 9.838c1.419 1.535 2.874 2.049 4.365 3.54 62.926 62.926 164.948 62.926 227.874 0 1.491-1.491 2.947-2.005 4.368-3.539 58.523-63.2 57.067-161.9-4.367-223.334z" opacity="1" data-original="url(#h)"></path>
    <circle cx="255" cy="201.472" r="79.446" fill="url(#i)" opacity="1" data-original="url(#i)"></circle>
    <path fill="url(#j)" d="M141.063 368.937c62.926 62.926 164.948 62.926 227.874 0a164.772 164.772 0 0 0 4.359-4.548C351.706 320.898 306.848 291 255 291s-96.706 29.898-118.296 73.389a164.772 164.772 0 0 0 4.359 4.548z" opacity="1" data-original="url(#j)"></path>
    <path fill="url(#k)" d="M373.296 364.389a132.324 132.324 0 0 0-22.59-32.266 162.866 162.866 0 0 1-8.91 9.672c-55.385 55.385-141.049 62.006-203.693 19.894-.471.896-.947 1.79-1.398 2.699a163.304 163.304 0 0 0 4.359 4.548c62.926 62.926 164.948 62.926 227.874 0a164.76 164.76 0 0 0 4.358-4.547z" opacity="1" data-original="url(#k)"></path>
  </g>
</svg>