<svg xmlns="http://www.w3.org/2000/svg" version="1.1" xmlns:xlink="http://www.w3.org/1999/xlink" width="512" height="512" x="0" y="0" viewBox="0 0 28 28" style="enable-background:new 0 0 512 512" xml:space="preserve" class="">
  <g>
    <linearGradient id="a" x1="2" x2="26" y1="14" y2="14" gradientUnits="userSpaceOnUse">
      <stop stop-opacity="1" stop-color="#fff33b" offset="0"></stop>
      <stop stop-opacity="1" stop-color="#fee32e" offset="0.04"></stop>
      <stop stop-opacity="1" stop-color="#fed51b" offset="0.117"></stop>
      <stop stop-opacity="1" stop-color="#fdcd10" offset="0.196"></stop>
      <stop stop-opacity="1" stop-color="#fdbb0c" offset="0.281"></stop>
      <stop stop-opacity="1" stop-color="#f3723f" offset="0.668"></stop>
      <stop stop-opacity="1" stop-color="#ed553c" offset="0.888"></stop>
      <stop stop-opacity="1" stop-color="#e0231e" offset="1"></stop>
    </linearGradient>
    <switch>
      <g>
        <path fill="url(#a)" d="M15 21H5c-1.7 0-3-1.3-3-3v-8c0-1.7 1.3-3 3-3h10c1.7 0 3 1.3 3 3v8c0 1.7-1.3 3-3 3zm10-1h-1c-.3 0-.5-.1-.7-.3l-3-3c-.2-.2-.3-.4-.3-.7v-4c0-.3.1-.5.3-.7l3-3c.2-.2.4-.3.7-.3h1c.6 0 1 .4 1 1v10c0 .6-.4 1-1 1z" opacity="1" data-original="url(#a)" class=""></path>
      </g>
    </switch>
  </g>
</svg>