<svg xmlns="http://www.w3.org/2000/svg" version="1.1" xmlns:xlink="http://www.w3.org/1999/xlink" width="512" height="512" x="0" y="0" viewBox="0 0 512 512" style="enable-background:new 0 0 512 512" xml:space="preserve" class="">
  <g>
    <linearGradient id="a" x1="434.19" x2="77.81" y1="77.81" y2="434.19" gradientUnits="userSpaceOnUse">
      <stop offset="0" stop-color="#ef3e3d"></stop>
      <stop offset="1" stop-color="#ffc828"></stop>
    </linearGradient>
    <path fill="url(#a)" fill-rule="evenodd" d="M256 4c69.586 0 132.587 28.207 178.19 73.81S508 186.414 508 256s-28.207 132.587-73.81 178.19S325.586 508 256 508s-132.587-28.207-178.19-73.81S4 325.586 4 256 32.207 123.413 77.81 77.81 186.414 4 256 4zM131 268h113v113c0 6.627 5.373 12 12 12s12-5.373 12-12V268h113c6.627 0 12-5.373 12-12s-5.373-12-12-12H268V131c0-6.627-5.373-12-12-12s-12 5.373-12 12v113H131c-6.627 0-12 5.373-12 12s5.373 12 12 12z" clip-rule="evenodd" opacity="1" data-original="url(#a)"></path>
  </g>
</svg>