<svg xmlns="http://www.w3.org/2000/svg" version="1.1" xmlns:xlink="http://www.w3.org/1999/xlink" width="512" height="512" x="0" y="0" viewBox="0 0 512 512" style="enable-background:new 0 0 512 512" xml:space="preserve" class="">
  <g>
    <linearGradient id="a" x1="160.755" x2="351.362" y1="353.808" y2="163.202" gradientTransform="matrix(1 0 0 -1 0 514.5)" gradientUnits="userSpaceOnUse">
      <stop offset="0" stop-color="#fbe150"></stop>
      <stop offset="1" stop-color="#f15318"></stop>
    </linearGradient>
    <path fill="url(#a)" d="M166.2 255.8c0 5.9-1.1 11.4-3.2 16.5s-5.1 9.6-8.8 13.3c-3.8 3.7-8.1 6.7-13.2 8.9s-10.5 3.3-16.4 3.3-11.1-1.1-16.2-3.3-9.6-5.2-13.4-8.9c-3.8-3.8-6.8-8.2-9-13.3s-3.3-10.6-3.3-16.5 1.1-11.1 3.3-16.1 5.2-9.4 9-13.2c3.8-3.7 8.3-6.7 13.4-8.9s10.5-3.3 16.2-3.3 11.3 1.1 16.4 3.3c5 2.2 9.4 5.2 13.2 8.9 3.7 3.8 6.7 8.1 8.8 13.2 2.1 5 3.1 10.4 3.2 16.1zm131.6 0c0 5.9-1.1 11.4-3.3 16.5s-5.2 9.6-8.9 13.3c-3.8 3.7-8.1 6.7-13.2 8.9-5 2.2-10.4 3.3-16.1 3.3s-11.1-1.1-16.2-3.3-9.6-5.2-13.4-8.9c-3.8-3.8-6.8-8.2-9-13.3s-3.3-10.6-3.3-16.5 1.1-11.1 3.3-16.1 5.2-9.4 9-13.2c3.8-3.7 8.3-6.7 13.4-8.9s10.5-3.3 16.2-3.3 11.1 1.1 16.1 3.3 9.4 5.2 13.2 8.9c3.7 3.8 6.7 8.1 8.9 13.2 2.1 5 3.3 10.4 3.3 16.1zm131.5 0c0 5.9-1.1 11.4-3.3 16.5s-5.2 9.6-8.9 13.3c-3.8 3.7-8.1 6.7-13.2 8.9-5 2.2-10.4 3.3-16.1 3.3s-11.3-1.1-16.4-3.3c-5-2.2-9.5-5.2-13.3-8.9-3.8-3.8-6.8-8.2-9-13.3s-3.3-10.6-3.3-16.5 1.1-11.1 3.3-16.1 5.2-9.4 9-13.2c3.8-3.7 8.3-6.7 13.3-8.9s10.5-3.3 16.4-3.3 11.1 1.1 16.1 3.3 9.4 5.2 13.2 8.9c3.7 3.8 6.7 8.1 8.9 13.2 2.2 5 3.3 10.4 3.3 16.1z" opacity="1" data-original="url(#a)"></path>
  </g>
</svg>