<svg xmlns="http://www.w3.org/2000/svg" version="1.1" xmlns:xlink="http://www.w3.org/1999/xlink" width="512" height="512" x="0" y="0" viewBox="0 0 48 48" style="enable-background:new 0 0 512 512" xml:space="preserve" class="">
  <g>
    <linearGradient id="b" x1="24" x2="24" y1="1.218" y2="45.692" gradientUnits="userSpaceOnUse">
      <stop stop-opacity="1" stop-color="#ffeef1" offset="0"></stop>
      <stop stop-opacity="1" stop-color="#e8c6ff" offset="1"></stop>
    </linearGradient>
    <linearGradient id="a" x1="24" x2="24" y1="8.66" y2="38.171" gradientUnits="userSpaceOnUse">
      <stop stop-opacity="1" stop-color="#d58cff" offset="0"></stop>
      <stop stop-opacity="1" stop-color="#6446fd" offset="1"></stop>
    </linearGradient>
    <linearGradient xlink:href="#a" id="c" x1="22.295" x2="22.295" y1="8.66" y2="38.171"></linearGradient>
    <linearGradient xlink:href="#a" id="d" x1="32" x2="32" y1="8.66" y2="38.171"></linearGradient>
    <path fill="url(#b)" d="M46.406 10.717a9.683 9.683 0 0 0-9.124-9.124 235.401 235.401 0 0 0-26.564 0 9.684 9.684 0 0 0-9.124 9.124 235.412 235.412 0 0 0 0 26.565 9.684 9.684 0 0 0 9.124 9.124 234.815 234.815 0 0 0 26.564 0 9.683 9.683 0 0 0 9.124-9.124 235.412 235.412 0 0 0 0-26.565z" data-name="Layer 2" opacity="1" data-original="url(#b)" class=""></path>
    <g data-name="Layer 3">
      <circle cx="24" cy="17" r="7.75" fill="url(#a)" opacity="1" data-original="url(#a)" class=""></circle>
      <path fill="url(#c)" d="M24.75 33a7.228 7.228 0 0 0 2.85 5.75H10.25V34a10.765 10.765 0 0 1 7.45-10.23 9.242 9.242 0 0 0 12.6 0 10.922 10.922 0 0 1 4.04 2.38 6.97 6.97 0 0 0-2.34-.4A7.255 7.255 0 0 0 24.75 33z" opacity="1" data-original="url(#c)" class=""></path>
      <path fill="url(#d)" d="M32 27.25A5.75 5.75 0 1 0 37.75 33 5.757 5.757 0 0 0 32 27.25zm3 6.5h-2.25V36h-1.5v-2.25H29v-1.5h2.25V30h1.5v2.25H35z" opacity="1" data-original="url(#d)"></path>
    </g>
  </g>
</svg>