<svg xmlns="http://www.w3.org/2000/svg" version="1.1" xmlns:xlink="http://www.w3.org/1999/xlink" width="512" height="512" x="0" y="0" viewBox="0 0 64 64" style="enable-background:new 0 0 512 512" xml:space="preserve" class="">
  <g>
    <linearGradient id="a" x1="4.024" x2="60.024" y1="32.024" y2="32.024" gradientUnits="userSpaceOnUse">
      <stop stop-opacity="1" stop-color="#ff9c9e" offset="0"></stop>
      <stop stop-opacity="1" stop-color="#b50093" offset="1"></stop>
    </linearGradient>
    <path fill="url(#a)" d="M37.425 54.07a13.96 13.96 0 0 0 1.799 1.23H7.81a3.793 3.793 0 0 1-3.787-3.797v-5.046a10.76 10.76 0 0 1 7.354-10.22l10.581-3.518C10.291 26.775 13.345 9.1 27.344 8.59a12.634 12.634 0 0 1 12.629 12.62c.112 5.256-3.401 9.486-7.234 11.51l1.989.659a16.296 16.296 0 0 0-.9 1.379 15.134 15.134 0 0 0 3.597 19.313zm-.69-20.022a13.202 13.202 0 0 0 .28 16.876l1.42-1.42L54.05 33.869l1.409-1.418c-5.244-4.859-14.412-4.004-18.724 1.598zm20.333.05c-1.864 1.863-16.528 16.55-18.394 18.414 12.412 9.536 27.93-6.083 18.394-18.414z" opacity="1" data-original="url(#a)"></path>
  </g>
</svg>