<svg xmlns="http://www.w3.org/2000/svg" version="1.1" xmlns:xlink="http://www.w3.org/1999/xlink" width="512" height="512" x="0" y="0" viewBox="0 0 512 512" style="enable-background:new 0 0 512 512" xml:space="preserve" class="">
  <g>
    <linearGradient id="a" x1="75.565" x2="437.435" y1="436.935" y2="75.064" gradientUnits="userSpaceOnUse">
      <stop offset="0" stop-color="#e81e25"></stop>
      <stop offset=".108" stop-color="#ea3522"></stop>
      <stop offset=".416" stop-color="#f1711c"></stop>
      <stop offset=".678" stop-color="#f59d17"></stop>
      <stop offset=".881" stop-color="#f8b814"></stop>
      <stop offset="1" stop-color="#f9c213"></stop>
    </linearGradient>
    <path fill="url(#a)" fill-rule="evenodd" d="M256.5 98c-87.12 0-158 70.881-158 158s70.88 158 158 158 158-70.88 158-158-70.88-158-158-158zm0 300c-78.3 0-142-63.7-142-142s63.7-142 142-142 142 63.7 142 142-63.7 142-142 142zm55.431-180.72a8 8 0 0 1 0 11.32l-66.117 66.118a8.008 8.008 0 0 1-11.314 0l-33.426-33.43a8 8 0 1 1 11.307-11.32l27.772 27.779 60.471-60.469a8 8 0 0 1 11.308 0zM256.5 0c141.16 0 256 114.838 256 256s-114.839 256-256 256S.5 397.159.5 256 115.339 0 256.5 0z" opacity="1" data-original="url(#a)"></path>
  </g>
</svg>