<svg xmlns="http://www.w3.org/2000/svg" version="1.1" xmlns:xlink="http://www.w3.org/1999/xlink" width="512" height="512" x="0" y="0" viewBox="0 0 28 28" style="enable-background:new 0 0 512 512" xml:space="preserve" class="">
  <g>
    <linearGradient id="a" x1="2" x2="26" y1="14" y2="14" gradientUnits="userSpaceOnUse">
      <stop stop-opacity="1" stop-color="#ffe63b" offset="0"></stop>
      <stop stop-opacity="1" stop-color="#fee32e" offset="0.04"></stop>
      <stop stop-opacity="1" stop-color="#fed01b" offset="0.117"></stop>
      <stop stop-opacity="1" stop-color="#fdbc10" offset="0.196"></stop>
      <stop stop-opacity="1" stop-color="#fdb20c" offset="0.281"></stop>
      <stop stop-opacity="1" stop-color="#ff8522" offset="0.668"></stop>
      <stop stop-opacity="1" stop-color="#ee4e19" offset="0.888"></stop>
      <stop stop-opacity="1" stop-color="#e42a26" offset="1"></stop>
    </linearGradient>
    <switch>
      <g>
        <path fill="url(#a)" d="M25 26C12.3 26 2 15.7 2 3c0-.6.4-1 1-1h5.5c.5 0 .9.3 1 .8l1.1 5.5c.1.3 0 .7-.3.9L6.5 13c1.9 3.6 4.9 6.5 8.5 8.5l3.8-3.8c.2-.2.6-.3.9-.3l5.5 1.1c.5.1.8.5.8 1V25c0 .6-.4 1-1 1z" opacity="1" data-original="url(#a)"></path>
      </g>
    </switch>
  </g>
</svg>