<svg xmlns="http://www.w3.org/2000/svg" version="1.1" xmlns:xlink="http://www.w3.org/1999/xlink" width="512" height="512" x="0" y="0" viewBox="0 0 32 32" style="enable-background:new 0 0 512 512" xml:space="preserve" class="">
  <g>
    <linearGradient id="a" x1="-2.455" x2="30.918" y1="26.369" y2="1.669" gradientUnits="userSpaceOnUse">
      <stop stop-opacity="1" stop-color="#e0dc00" offset="0.006"></stop>
      <stop stop-opacity="1" stop-color="#e50004" offset="1"></stop>
    </linearGradient>
    <path fill="url(#a)" d="M27.938.398H4.061c-1.1.004-2.072.515-2.799 1.244-.729.726-1.246 1.7-1.246 2.799v16.433c0 .377-.039 2.881.064 5.248.053 1.184.129 2.341.285 3.267.41 2.11 1.434 2.748 2.932 1.754.328-.246.639-.545.969-.889.662-.688 1.383-1.564 2.078-2.423.697-.859 1.371-1.704 1.896-2.314.262-.305.492-.558.639-.692l19.051.105c2.232.011 4.063-1.827 4.063-4.055V4.441C31.992 2.216 30.164.398 27.938.398zm-8.745 17.053H6.4c-1.453.032-1.453-2.166 0-2.132h12.793c1.455-.033 1.455 2.164 0 2.132zm6.399-4.264H6.4c-1.424 0-1.424-2.134 0-2.134h19.191c1.425 0 1.425 2.134.001 2.134zm0-4.266H6.4c-1.453.031-1.453-2.166 0-2.133h19.191c1.454-.032 1.454 2.164.001 2.133z" opacity="1" data-original="url(#a)" class=""></path>
  </g>
</svg>