<svg xmlns="http://www.w3.org/2000/svg" version="1.1" xmlns:xlink="http://www.w3.org/1999/xlink" width="512" height="512" x="0" y="0" viewBox="0 0 512 512" style="enable-background:new 0 0 512 512" xml:space="preserve" class="">
  <g transform="matrix(1,0,0,1,0,0)">
    <linearGradient id="a">
      <stop stop-opacity="1" stop-color="#18242d" offset="0"></stop>
      <stop stop-opacity="1" stop-color="#9d22e2" offset="1"></stop>
    </linearGradient>
    <linearGradient xlink:href="#a" id="b" x1="23.729" x2="400.819" y1="333.009" y2="-44.081" gradientTransform="matrix(1 0 0 -1 0 514)" gradientUnits="userSpaceOnUse"></linearGradient>
    <linearGradient xlink:href="#a" id="c" x1="168.463" x2="545.553" y1="477.737" y2="100.647" gradientTransform="matrix(1 0 0 -1 0 514)" gradientUnits="userSpaceOnUse"></linearGradient>
    <path fill="url(#b)" d="M256 292.11c33.03 0 63.5-9.34 87.94-25.08 18.81-12.12 43.56-10.03 60.12 5.02 44.42 40.36 72.27 98.62 72.17 163.36l-.05 26.68c-.05 27.58-22.42 49.91-50 49.91H85.82c-27.58 0-49.95-22.33-50-49.91l-.05-26.68c-.1-64.75 27.76-123.01 72.17-163.36 16.56-15.05 41.31-17.13 60.12-5.02 24.44 15.74 54.9 25.08 87.94 25.08z" opacity="1" data-original="url(#b)"></path>
    <circle cx="256.01" cy="123.81" r="123.81" fill="url(#c)" opacity="1" data-original="url(#c)" class=""></circle>
  </g>
</svg>