<svg xmlns="http://www.w3.org/2000/svg" version="1.1" xmlns:xlink="http://www.w3.org/1999/xlink" width="512" height="512" x="0" y="0" viewBox="0 0 512 512" style="enable-background:new 0 0 512 512" xml:space="preserve" class="">
  <g>
    <linearGradient id="a" x1="74.981" x2="437.019" y1="437.019" y2="74.981" gradientUnits="userSpaceOnUse">
      <stop offset="0" stop-color="#001b39"></stop>
      <stop offset=".12" stop-color="#002443"></stop>
      <stop offset=".323" stop-color="#003d5e"></stop>
      <stop offset=".587" stop-color="#00658a"></stop>
      <stop offset=".896" stop-color="#009dc6"></stop>
      <stop offset="1" stop-color="#00b1dc"></stop>
    </linearGradient>
    <path fill="url(#a)" fill-rule="evenodd" d="M256 0c141.385 0 256 114.615 256 256S397.385 512 256 512 0 397.385 0 256 114.615 0 256 0zm46.729 236.559a7.032 7.032 0 0 0-14.063 0V361.6a7.032 7.032 0 0 0 14.064 0V236.559zm-39.7 0a7.032 7.032 0 0 0-14.063 0V361.6a7.032 7.032 0 0 0 14.063 0zm-39.7 0a7.032 7.032 0 0 0-14.063 0V361.6a7.032 7.032 0 0 0 14.063 0zm122.315-43.388a17.78 17.78 0 0 0 0-35.559h-179.3a17.779 17.779 0 0 0 0 35.558zm-25.43 198.767a18.414 18.414 0 0 0 18.4-18.393V207.233H173.382v166.312a18.414 18.414 0 0 0 18.4 18.393zm-66.2-271.875c-18.247 0-34.465 9.51-41.514 23.488h83.015c-7.072-13.949-23.373-23.488-41.5-23.488zm123.475 55.328a31.878 31.878 0 0 0-31.841-31.84h-34.916a53.385 53.385 0 0 0-19.84-26.065A63.211 63.211 0 0 0 254.013 106a63.973 63.973 0 0 0-37.313 11.8 53.346 53.346 0 0 0-19.412 25.749h-30.936a31.838 31.838 0 0 0-7.032 62.891v167.1A32.495 32.495 0 0 0 191.781 406h128.438a32.494 32.494 0 0 0 32.46-32.455v-167.1a31.889 31.889 0 0 0 24.81-31.054z" opacity="1" data-original="url(#a)"></path>
  </g>
</svg>